<svg width="134" height="58" viewBox="0 0 134 58" fill="none" xmlns="http://www.w3.org/2000/svg">
<path d="M68.2227 7.77925C68.3565 7.67908 68.7601 8.86447 69.0672 9.48409C69.376 10.1047 69.8099 10.6969 70.0689 11.2193C70.3272 11.7407 70.3988 12.5975 69.9005 12.8386C69.403 13.0817 68.4952 12.4732 68.0685 11.6131C67.6428 10.7543 67.3314 8.439 68.2227 7.77925Z" fill="#53A500"/>
<path d="M68.7886 7.57469C68.6265 7.61907 69.3267 8.65992 69.6345 9.27953C69.9419 9.90013 70.1485 10.6026 70.4068 11.1253C70.6668 11.6454 71.306 12.2275 71.8036 11.9848C72.3021 11.7417 72.372 10.66 71.9466 9.79996C71.5199 8.94117 69.8618 7.28104 68.7886 7.57469Z" fill="#53A500"/>
<path fill-rule="evenodd" clip-rule="evenodd" d="M87.4934 9.62406C87.47 9.52095 87.1352 9.34737 86.8074 9.39566C86.4782 9.44395 86.067 9.61851 86.0993 9.76207C86.1325 9.90662 86.6007 10.0727 86.9036 10.0453C87.2074 10.0172 87.5586 9.91086 87.4934 9.62406Z" fill="#53A500"/>
<path fill-rule="evenodd" clip-rule="evenodd" d="M88.947 10.1275C88.8916 10.012 88.4958 9.86388 88.1733 9.96699C87.8503 10.0707 87.4793 10.3308 87.5571 10.49C87.6329 10.647 88.1624 10.7703 88.4669 10.6933C88.7707 10.6163 89.0998 10.4424 88.947 10.1275Z" fill="#53A500"/>
<path fill-rule="evenodd" clip-rule="evenodd" d="M89.5478 10.9873C89.5017 10.878 89.0954 10.7273 88.7336 10.8134C88.3718 10.9018 87.9392 11.1345 88.0008 11.2852C88.064 11.436 88.6189 11.5678 88.956 11.5055C89.2944 11.4415 89.671 11.2911 89.5478 10.9873Z" fill="#53A500"/>
<path fill-rule="evenodd" clip-rule="evenodd" d="M89.763 11.8608C89.734 11.7417 89.332 11.5446 88.9382 11.603C88.5458 11.6618 88.0532 11.8657 88.0937 12.0311C88.1339 12.1939 88.6948 12.3832 89.0585 12.3486C89.4246 12.315 89.8437 12.188 89.763 11.8608Z" fill="#53A500"/>
<path fill-rule="evenodd" clip-rule="evenodd" d="M89.082 12.7395C89.0656 12.6302 88.7209 12.4288 88.3578 12.4592C87.9947 12.4885 87.5274 12.6478 87.5479 12.7985C87.5676 12.9506 88.0596 13.1545 88.394 13.1441C88.7288 13.1326 89.1239 13.0432 89.082 12.7395Z" fill="#53A500"/>
<path fill-rule="evenodd" clip-rule="evenodd" d="M88.038 9.64398C87.9135 9.64822 87.81 9.61658 87.8093 9.57448C87.8057 9.53109 87.9049 9.49389 88.0295 9.4903C88.154 9.48704 88.2581 9.56078 88.2581 9.56078C88.2581 9.56078 88.1626 9.64072 88.038 9.64398Z" fill="#53A500"/>
<path fill-rule="evenodd" clip-rule="evenodd" d="M89.6203 10.0802C89.5 10.1034 89.3916 10.0887 89.3788 10.0466C89.3626 10.0064 89.4503 9.95489 89.5699 9.93009C89.6918 9.90791 89.8134 9.96305 89.8134 9.96305C89.8134 9.96305 89.7412 10.0557 89.6203 10.0802Z" fill="#53A500"/>
<path fill-rule="evenodd" clip-rule="evenodd" d="M90.1579 10.9717C90.0353 10.9906 89.9279 10.9717 89.9164 10.9302C89.9058 10.8885 89.9964 10.8398 90.1177 10.8209C90.2399 10.8026 90.3589 10.863 90.3589 10.863C90.3589 10.863 90.2804 10.9534 90.1579 10.9717Z" fill="#53A500"/>
<path fill-rule="evenodd" clip-rule="evenodd" d="M90.2939 11.9104C90.1707 11.9166 90.0659 11.8895 90.061 11.8461C90.0573 11.8037 90.1565 11.7639 90.2798 11.7577C90.4036 11.7511 90.5111 11.8219 90.5111 11.8219C90.5111 11.8219 90.4185 11.9042 90.2939 11.9104Z" fill="#53A500"/>
<path fill-rule="evenodd" clip-rule="evenodd" d="M89.8819 12.6974C89.7574 12.7023 89.6539 12.6742 89.649 12.6321C89.6453 12.5901 89.7439 12.5503 89.8654 12.5431C89.9917 12.5362 90.0991 12.6077 90.0991 12.6077C90.0991 12.6077 90.0052 12.6896 89.8819 12.6974Z" fill="#53A500"/>
<path fill-rule="evenodd" clip-rule="evenodd" d="M87.2891 11.6193C87.1616 11.1266 86.5648 10.6519 86.2719 10.4016C85.98 10.1507 85.5453 9.60678 84.9232 9.66421C84.3038 9.72163 84.3716 10.0456 83.7584 10.2747C83.2022 10.4845 81.5277 10.7586 81.2212 11.2963C82.533 11.1687 84.6356 11.5583 85.3068 11.9466C84.3631 11.7798 82.6753 11.9276 81.7422 12.082C82.4529 12.4843 83.6319 12.8011 84.1182 12.8595C84.8352 12.943 85.3895 13.348 86.0389 13.329C86.6864 13.3101 87.5105 12.4768 87.2891 11.6193Z" fill="#53A500"/>
<path fill-rule="evenodd" clip-rule="evenodd" d="M78.2412 7.83928C78.1018 7.7551 77.9595 7.8954 77.9021 8.04484C77.8682 8.13652 77.8682 8.21157 77.8283 8.28107C77.7611 8.3982 77.6613 8.38189 77.517 8.48499C77.3845 8.58027 77.2662 8.75418 77.2132 8.91667C77.0184 9.50202 77.1367 10.1037 77.4412 10.4241C77.6063 10.5977 77.8738 10.7161 78.0478 10.5187C78.1951 10.3448 78.2541 9.97677 78.2831 9.74184C78.3022 9.60741 78.341 9.45178 78.349 9.30723C78.3536 9.15877 78.3305 9.0015 78.3157 8.86642C78.2962 8.70654 78.2455 8.55776 78.2623 8.44486C78.2837 8.33001 78.3536 8.25986 78.3687 8.13457C78.377 8.03831 78.3424 7.90258 78.2412 7.83928Z" fill="#53A500"/>
<path fill-rule="evenodd" clip-rule="evenodd" d="M76.8279 7.59588C76.6473 7.47679 76.5468 7.73064 76.4456 7.84549C76.3577 7.94435 76.2318 7.97437 76.1122 8.10064C76.0575 8.15742 76.0117 8.24356 75.9586 8.32088C75.8502 8.47783 75.7171 8.68045 75.6413 8.92843C75.5316 9.28473 75.5754 9.66191 75.6967 9.90435C75.7682 10.0508 75.9224 10.212 76.127 10.1784C76.4427 10.1288 76.7343 9.84626 76.8786 9.39958C76.9554 9.1565 76.9715 8.92027 76.9531 8.70786C76.9356 8.48207 76.8697 8.28304 76.8704 8.11598C76.8704 7.91075 76.9864 7.70258 76.8279 7.59588Z" fill="#53A500"/>
<path fill-rule="evenodd" clip-rule="evenodd" d="M78.8432 9.84437C78.7328 9.76443 78.6188 9.9279 78.575 10.1129C78.5473 10.2326 78.5622 10.4186 78.6215 10.4646C78.6749 10.5084 78.7668 10.4829 78.803 10.4493C78.921 10.3364 78.9368 9.91518 78.8432 9.84437Z" fill="#53A500"/>
<path fill-rule="evenodd" clip-rule="evenodd" d="M75.1267 8.78745C74.9863 8.68859 74.8116 8.93461 74.7803 9.13168C74.7678 9.20379 74.8044 9.29287 74.7883 9.36171C74.7593 9.46254 74.6884 9.5167 74.638 9.60838C74.5915 9.69877 74.556 9.80742 74.5171 9.90759C74.355 10.3373 74.0337 10.9178 74.2235 11.2516C74.2564 11.3106 74.3415 11.3896 74.4393 11.3994C74.6113 11.4121 74.8795 11.1928 75.0021 11.0643C75.1415 10.9227 75.3086 10.6894 75.3573 10.43C75.4245 10.0502 75.414 9.59174 75.3198 9.38879C75.2809 9.30331 75.1735 9.2299 75.1613 9.12875C75.1484 9.01748 75.2351 8.8625 75.1267 8.78745Z" fill="#53A500"/>
<path fill-rule="evenodd" clip-rule="evenodd" d="M78.805 11.5267C78.8666 11.156 78.8135 10.9064 78.6818 10.6783C78.6145 10.5609 78.5473 10.4016 78.3569 10.4297C78.174 10.4584 77.9568 10.7449 77.8662 10.9821C77.6695 11.4937 77.8059 11.8934 77.8069 12.2608C77.7077 12.2079 77.6685 12.1052 77.6178 12.0314C77.508 11.8764 77.3805 11.7446 77.3311 11.543C77.28 11.3338 77.3054 11.108 77.2629 10.907C77.2079 10.6447 77.113 10.2858 76.8016 10.1843C76.6378 10.1318 76.48 10.1961 76.3745 10.2669C76.1502 10.4163 76.0483 10.6799 75.845 10.8307C75.7043 10.9344 75.5238 11.0095 75.3422 11.0823C75.1046 11.1762 74.8489 11.2392 74.6838 11.5169C74.5573 11.7335 74.4539 12.0869 74.4087 12.3567C74.3682 12.5868 74.3939 12.8742 74.4512 13.0537C74.5267 13.2821 74.8156 13.5147 75.1781 13.4651C75.2631 13.4524 75.3373 13.4224 75.4097 13.395C75.7821 12.8785 76.0757 11.7074 76.5014 11.2855C76.1686 12.1955 76.192 13.2553 76.3492 13.5542C76.4289 13.6514 76.4991 13.7666 76.5749 13.8772C76.6767 14.0322 76.7617 14.2146 76.9452 14.3167C77.0718 14.3888 77.2609 14.3882 77.3657 14.3343C77.6672 14.1725 77.9081 13.3894 77.912 12.9597C77.9156 12.7998 77.8577 12.685 77.8791 12.5026C77.9921 12.543 78.0007 12.6624 78.0949 12.715C78.2465 12.7969 78.4333 12.729 78.5167 12.6308C78.5783 12.5613 78.6379 12.422 78.686 12.2719C78.7654 12.0187 78.7589 11.7988 78.805 11.5267Z" fill="#53A500"/>
<path fill-rule="evenodd" clip-rule="evenodd" d="M63.8573 14.1258C65.1137 13.546 66.1127 13.2882 66.6521 13.1858C66.3981 13.038 66.0215 13.0008 65.7331 13.129C65.2639 13.3378 64.6415 13.2921 63.7838 13.0546C63.3172 12.9251 62.8902 13.0363 62.4167 12.8184C61.9748 12.6171 61.61 12.3214 61.1876 12.3032C60.7642 12.2849 60.6367 12.4728 60.777 12.714C60.9164 12.9551 61.2802 12.8105 61.754 12.9195C62.2262 13.0295 62.9956 13.2412 63.0233 13.3939C63.0509 13.546 60.5717 14.2227 60.115 14.3389C59.659 14.4531 58.5074 14.2625 58.1433 14.3872C57.7808 14.5108 57.6019 14.6482 57.6592 14.8717C57.7179 15.0952 58.0428 15.2903 58.8649 14.9895C59.6854 14.688 61.0963 14.3395 61.4047 14.3314C61.7158 14.3222 62.4186 14.2407 62.4865 14.4113C62.556 14.5829 61.6654 14.7924 61.3418 14.9363C61.0199 15.0792 60.324 15.3344 60.0343 15.3226C59.7463 15.3099 59.6307 15.3239 59.4758 15.4009C59.3193 15.4753 59.1183 15.7164 59.2491 15.8874C59.3803 16.0558 59.6478 16.0894 60.1299 15.769C60.61 15.4479 62.6793 14.6012 62.791 14.7098C62.9037 14.8178 62.6232 15.4388 62.3175 15.7657C62.011 16.0917 61.2103 16.3909 61.4416 16.6809C61.6739 16.9707 62.0667 16.4372 62.2466 16.1974C62.4265 15.9569 63.1884 15.0541 63.4474 14.9138C63.7087 14.7735 64.8731 14.3503 64.9822 14.562C65.0913 14.7735 64.0207 15.6443 63.8652 15.7611C63.7087 15.877 63.0635 16.1015 63.1422 16.3439C63.2187 16.5873 63.5067 16.6193 63.9719 16.0949C64.4362 15.5706 65.3397 14.7454 65.4544 14.6707C65.5598 14.6018 66.6983 14.503 66.9078 13.8321C66.35 13.8139 65.2023 13.8034 63.8573 14.1258Z" fill="#53A500"/>
<path fill-rule="evenodd" clip-rule="evenodd" d="M69.3921 18.9882C69.2817 18.7774 67.8345 18.0397 67.3172 18.0537C67.0345 18.0609 66.9425 18.2452 66.6041 18.2942C66.2269 18.3474 65.7978 18.4583 65.7978 18.4583C66.0895 18.2178 66.2631 17.8759 66.4117 17.7959C66.561 17.7153 66.8697 17.5904 66.9771 17.408C67.0842 17.2259 67.3439 15.8421 67.164 15.523C66.987 15.2033 66.3748 15.1824 66.1553 15.2587C66.619 14.9047 67.4651 14.801 67.8368 14.8297C68.2092 14.8571 69.4382 15.1886 69.9483 15.2251C70.2155 15.2428 70.5856 15.2124 70.9049 15.2154C70.3783 15.4894 69.5321 16.0027 68.5687 16.8409C69.7964 16.1603 70.9447 15.8588 71.5168 15.7244C71.4331 15.9423 71.2456 16.2037 71.0446 16.4366C70.7118 16.8243 70.7797 17.7418 70.4923 18.2704C70.204 18.7983 69.7625 19.4721 68.9878 19.6822C69.288 19.458 69.5018 19.198 69.3921 18.9882Z" fill="#53A500"/>
<path fill-rule="evenodd" clip-rule="evenodd" d="M87.1549 16.6702C86.9674 16.5599 86.8482 16.4239 86.8861 16.3664C86.9249 16.3067 87.1062 16.3475 87.2923 16.4571C87.4785 16.5658 87.5592 16.7625 87.5592 16.7625C87.5592 16.7625 87.3404 16.7789 87.1549 16.6702Z" fill="#53A500"/>
<path fill-rule="evenodd" clip-rule="evenodd" d="M85.3016 18.0886C85.1635 17.9372 85.1075 17.7851 85.1764 17.7515C85.243 17.7156 85.4113 17.8119 85.5471 17.9633C85.6861 18.116 85.6726 18.3023 85.6726 18.3023C85.6726 18.3023 85.439 18.24 85.3016 18.0886Z" fill="#53A500"/>
<path fill-rule="evenodd" clip-rule="evenodd" d="M83.0994 17.9548C83.0039 17.7874 82.9897 17.6399 83.0704 17.6226C83.1502 17.605 83.2962 17.7264 83.394 17.8924C83.4916 18.0579 83.4237 18.2233 83.4237 18.2233C83.4237 18.2233 83.1986 18.1202 83.0994 17.9548Z" fill="#53A500"/>
<path fill-rule="evenodd" clip-rule="evenodd" d="M85.9134 14.0047C85.7668 14.086 85.5961 14.0967 85.5325 14.0292C85.4689 13.9613 85.5354 13.8416 85.6824 13.76C85.8284 13.6781 86.062 13.7349 86.062 13.7349C86.062 13.7349 86.0613 13.9235 85.9134 14.0047Z" fill="#53A500"/>
<path fill-rule="evenodd" clip-rule="evenodd" d="M84.3292 16.9939C84.574 17.3172 84.8373 17.6291 85.0406 17.5378C85.2439 17.4487 84.9615 17.1531 84.6152 16.6862C84.2682 16.2186 84.0692 15.8169 84.1918 15.7181C84.3127 15.6192 85.006 15.7687 85.3579 15.8926C85.7125 16.0179 86.7326 16.4767 86.6519 16.2356C86.5735 15.9928 85.9886 15.9044 85.6149 15.7615C85.2373 15.6169 84.4416 15.1187 84.2995 14.8521C84.1556 14.5852 84.4198 14.4612 84.8241 14.4253C85.2261 14.3895 85.4456 14.227 85.2956 14.042C85.1454 13.856 84.5048 14.0407 83.9058 13.8521C83.3664 13.6821 82.5077 13.317 81.7841 13.6191C82.1465 13.8247 82.8362 14.3056 83.6086 15.2146C82.6925 14.5908 81.8075 14.3735 81.3841 14.2808C81.4223 14.7611 81.7146 15.4124 82.017 15.7638C82.4721 16.292 82.793 16.5935 82.768 16.9498C82.7449 17.3064 83.2524 17.7946 83.1525 17.2751C83.0533 16.7557 83.0484 16.1997 83.3133 16.1344C83.5766 16.0692 84.0821 16.6692 84.3292 16.9939Z" fill="#53A500"/>
<path d="M67.96 1.96461C68.2269 1.94014 68.481 2.17996 68.5314 2.49678C68.5525 2.62501 68.5333 2.74541 68.4908 2.84656C69.1676 3.65542 70.5051 4.8767 70.9977 4.70214C71.3467 4.57881 71.1628 3.93864 70.9582 3.31967C70.7839 2.78783 70.5638 1.69053 70.3862 1.40112C70.2359 1.29997 70.1219 1.12476 70.088 0.918872C70.0349 0.577904 70.2234 0.280659 70.5071 0.255535C70.7944 0.230411 71.0686 0.486218 71.1229 0.82686C71.1628 1.08006 71.0705 1.30487 70.9058 1.41939C71.0686 2.02269 71.2923 3.03385 71.3915 3.35198C71.576 3.95495 71.807 4.44503 72.0518 4.48908C72.6294 4.59414 72.8914 3.7706 72.9998 3.30793C73.0917 2.91998 73.0542 2.50037 73.0182 2.32646C72.9418 2.23086 72.8858 2.11112 72.8647 1.97864C72.8107 1.638 72.9998 1.34272 73.2829 1.31759C73.5682 1.29247 73.843 1.54827 73.8967 1.88761C73.9491 2.20998 73.782 2.48961 73.5217 2.54018C73.4713 3.06876 73.1649 4.30668 73.0769 4.64602C73.0855 4.68811 72.9504 5.56451 72.9639 5.67741C73.0202 6.11626 72.9148 6.60112 72.7032 6.90489C72.4733 6.42231 72.0917 5.78182 71.4742 5.05616C71.8268 5.87155 71.9335 6.62657 71.9612 7.18158C71.688 7.12285 71.5457 6.95742 71.3664 6.84224C71.1351 6.69444 70.0059 6.69639 69.337 6.57958C69.3311 6.59296 69.3284 6.60536 69.3222 6.61743C69.1891 6.86835 68.8922 6.92381 68.6602 6.73653C68.4292 6.54989 68.3495 6.19392 68.4846 5.94104C68.616 5.68915 68.9116 5.63532 69.1429 5.82391C69.2398 5.89961 69.308 6.00761 69.3475 6.12311C69.8636 6.16944 70.4886 6.13779 70.4794 5.70612C70.4689 5.27412 70.2721 5.11718 69.9239 4.79057C69.6145 4.50082 68.6012 3.78724 68.1729 3.10661C68.1633 3.10889 68.1524 3.11216 68.1419 3.11281C67.878 3.13532 67.6209 2.89844 67.5692 2.58097C67.5204 2.26382 67.6938 1.98713 67.96 1.96461Z" fill="#53A500"/>
<path fill-rule="evenodd" clip-rule="evenodd" d="M74.2884 5.80466C74.3968 4.74717 74.9781 3.5546 75.2908 2.487C75.3679 2.22695 75.6279 0.961617 76.0717 1.13912C76.394 1.2693 75.85 2.35877 75.7518 2.63122C75.7481 2.63252 75.8055 2.67559 75.8055 2.67265C76.4279 2.40902 76.5841 -0.229974 77.2108 0.423248C77.1153 1.0011 76.8984 1.80147 76.5419 2.45894C77.0283 2.71279 76.9482 2.19073 77.1449 1.84976C77.2922 1.59624 77.712 0.150474 77.9067 0.0496517C78.602 -0.313177 77.8814 1.42298 77.6441 1.67749C77.5555 2.02726 77.0467 2.67494 77.428 2.87462C77.6675 2.49679 77.974 1.65628 78.2514 1.36621C79.3071 0.263368 78.1269 2.56792 77.9357 2.97023C77.595 3.68446 76.3848 5.19777 77.2184 5.57071L77.2731 5.58115C77.3545 5.65228 77.4662 5.71885 77.5759 5.7505C77.9974 5.87155 80.672 4.80199 79.7276 5.93256C79.3147 6.42688 78.718 6.17173 78.2471 6.23699C77.7057 6.31399 77.2184 6.64354 76.6955 6.78939C76.3324 6.88956 75.9307 6.946 75.5626 6.93752C75.5897 6.41285 75.6595 5.12207 76.224 3.64041C75.3066 5.02549 74.9036 6.13225 74.7642 6.62657C74.7501 6.67714 74.7537 6.7238 74.7712 6.76459C74.439 6.59655 74.238 6.29343 74.2884 5.80466Z" fill="#53A500"/>
<path fill-rule="evenodd" clip-rule="evenodd" d="M65.2808 6.24936C66.1899 5.94917 64.7223 5.2581 64.8135 5.37393C64.974 5.57721 65.0613 6.3231 65.2808 6.24936Z" fill="#53A500"/>
<path fill-rule="evenodd" clip-rule="evenodd" d="M60.1217 10.4564C59.9965 10.3771 60.8239 11.7619 61.0456 10.8398C61.0987 10.6176 60.3398 10.5967 60.1217 10.4564Z" fill="#53A500"/>
<path fill-rule="evenodd" clip-rule="evenodd" d="M61.3748 7.16292C61.6203 7.38675 61.5972 7.42656 61.8002 7.20632C62.0035 6.98477 61.9652 7.01381 61.7181 6.78998C61.4723 6.56778 60.9089 6.39876 60.9089 6.39876C60.9089 6.39876 61.1296 6.93942 61.3748 7.16292Z" fill="#53A500"/>
<path fill-rule="evenodd" clip-rule="evenodd" d="M65.1446 10.291C65.7795 10.938 66.4544 11.292 66.8778 11.4793C67.0014 11.1925 67.0063 10.7882 66.8188 10.582C66.7776 10.5357 66.7127 10.4942 66.632 10.4551C66.627 10.43 66.6198 10.4039 66.6112 10.3745C66.3842 9.60185 66.0145 7.86765 66.0082 7.35016C66.0013 6.83202 65.7393 6.11779 65.3265 6.47605C64.9146 6.83268 65.9077 8.45986 65.6777 9.08176C65.5261 9.49255 65.5673 9.80023 65.5861 10.0583C65.4115 9.97676 65.2543 9.88017 65.139 9.7588C64.7169 9.3144 64.1781 9.08045 63.7379 8.60081C63.296 8.12411 62.322 6.95569 61.9306 7.37888C61.5381 7.8037 63.0015 8.65073 63.3356 8.9842C63.67 9.31864 64.1307 9.82634 64.6072 10.2512C64.7538 10.383 64.8826 10.5797 65.0009 10.7964C64.7198 10.8111 64.3785 10.767 63.9274 10.9765C63.3231 11.2604 61.5971 10.427 61.2749 10.8652C60.9513 11.3028 61.694 11.4976 62.2149 11.4581C62.7369 11.4196 64.5136 11.6278 65.3116 11.784C65.3943 11.7997 65.4596 11.7997 65.5107 11.7906C65.5766 11.892 65.6421 11.9756 65.7117 12.0262C65.885 12.1527 66.139 12.0715 66.3522 11.9567C66.0359 11.6447 65.5871 11.1083 65.1446 10.291Z" fill="#53A500"/>
<path fill-rule="evenodd" clip-rule="evenodd" d="M84.4375 4.58169C84.5805 4.37221 84.5743 4.10368 84.5743 4.10368C84.5743 4.10368 84.3364 4.17514 84.196 4.38494C84.0503 4.59572 83.9907 4.81172 84.0586 4.8649C84.1245 4.91972 84.2939 4.79279 84.4375 4.58169Z" fill="#53A500"/>
<path fill-rule="evenodd" clip-rule="evenodd" d="M79.9627 10.4816C79.818 10.6304 79.8032 10.8363 79.8032 10.8363C79.8032 10.8363 80.0236 10.8007 80.168 10.6536C80.3129 10.5041 80.3831 10.3449 80.3264 10.2972C80.2691 10.2496 80.107 10.3325 79.9627 10.4816Z" fill="#53A500"/>
<path fill-rule="evenodd" clip-rule="evenodd" d="M85.8079 7.09345C85.6343 7.19852 85.5226 7.33458 85.5582 7.39722C85.5928 7.45889 85.7598 7.423 85.9332 7.31728C86.1068 7.21255 86.1846 7.01417 86.1846 7.01417C86.1846 7.01417 85.9829 6.98839 85.8079 7.09345Z" fill="#53A500"/>
<path fill-rule="evenodd" clip-rule="evenodd" d="M81.3106 4.36989C81.3735 4.40023 81.4806 4.26319 81.5511 4.06579C81.6213 3.86741 81.5646 3.65206 81.5646 3.65206C81.5646 3.65206 81.3933 3.76071 81.3247 3.95779C81.2533 4.15617 81.2476 4.34052 81.3106 4.36989Z" fill="#53A500"/>
<path fill-rule="evenodd" clip-rule="evenodd" d="M84.0313 7.97307C83.7071 8.17145 82.7887 8.13034 82.3287 7.96458C82.8141 7.18933 83.3034 6.44344 83.3756 6.37199C83.513 6.23886 84.2784 5.49494 83.9301 5.06391C83.743 4.83127 83.2972 5.05347 82.9607 5.93509C82.626 6.81639 81.988 7.53911 81.9215 7.67582C81.9178 7.68561 81.9116 7.69638 81.9047 7.70943C81.6031 7.33388 81.247 6.39287 81.3234 5.9873C81.4041 5.55106 81.7501 4.79669 81.2753 4.55295C81.04 4.43288 80.7988 5.18529 80.9007 5.5938C80.9992 5.98502 81.0381 7.23208 81.4565 8.4576C81.2433 8.79204 81.014 9.12061 80.8957 9.19207C80.6572 9.34085 80.1553 10.0476 80.4413 10.2192C80.7286 10.3908 81.017 10.2796 81.3616 9.5947C81.4641 9.39208 81.6704 9.03741 81.9139 8.63771C83.1591 8.64391 84.1522 8.29641 84.5163 8.27097C84.9147 8.2429 85.5101 7.76131 85.3276 7.56456C84.9572 7.1629 84.3931 7.75152 84.0313 7.97307Z" fill="#53A500"/>
<path d="M48.2869 21.4431C47.7508 23.1297 46.9715 25.6555 45.9527 29.0211L44.6083 29.01C44.0995 27.0977 43.5183 25.1621 42.8662 23.2054C42.3633 24.8032 41.7831 26.743 41.1237 29.0211H39.7995C39.2554 27.0823 38.5674 24.7093 37.7315 21.9058C37.6847 21.8552 37.6026 21.8288 37.4863 21.8288H37.3845V21.4431H39.2788C39.9316 24.058 40.4611 26.0581 40.869 27.4455C41.3923 25.8819 41.9119 24.0537 42.4279 21.9613C42.3798 21.8729 42.282 21.8288 42.1327 21.8288H42.0309V21.4431H43.9364C44.3302 22.8243 44.6149 23.8077 44.7908 24.395C45.1111 25.4826 45.4195 26.4666 45.7197 27.3473C46.2219 25.7609 46.7145 23.9774 47.1959 21.9955C47.1484 21.8849 47.0466 21.8288 46.8901 21.8288H46.7873V21.4431H48.2869Z" fill="#51270C"/>
<path d="M50.3425 22.0057C50.3425 22.2468 50.2624 22.4543 50.1026 22.6276C49.9431 22.8002 49.7513 22.8863 49.5283 22.8863C49.3039 22.8863 49.1114 22.8002 48.9529 22.6276C48.7921 22.4543 48.7134 22.2468 48.7134 22.0057C48.7134 21.7632 48.7921 21.557 48.9529 21.388C49.1114 21.22 49.3039 21.1351 49.5283 21.1351C49.7513 21.1351 49.9431 21.22 50.1026 21.388C50.2624 21.557 50.3425 21.7632 50.3425 22.0057ZM50.6796 28.9444H48.8142C48.8544 27.9013 48.8762 26.987 48.8762 26.202C48.8762 25.5481 48.865 24.9093 48.8452 24.2854C48.8162 24.1157 48.7071 24.0316 48.5091 24.0316H48.407V23.6462H50.2818C50.2476 24.6009 50.2308 25.4519 50.2308 26.202C50.2308 26.8849 50.2413 27.6119 50.2624 28.3829C50.2944 28.4922 50.4041 28.5483 50.5883 28.5483H50.6796V28.9444Z" fill="#51270C"/>
<path d="M53.3079 28.9444H51.4231C51.4574 27.2621 51.4748 25.8936 51.4748 24.8365C51.4748 22.4797 51.4551 21.2787 51.4142 21.2346C51.3661 21.1615 51.2712 21.124 51.1289 21.124H51.0267V20.7263H52.9313C52.898 21.8151 52.8832 23.1721 52.8907 24.8029C52.8832 25.9987 52.8937 27.2144 52.9214 28.4481C52.9823 28.5134 53.0812 28.547 53.2173 28.547H53.3079V28.9444Z" fill="#51270C"/>
<path d="M57.6763 26.1292C57.6763 24.7532 57.2835 24.0648 56.4996 24.0648C55.6607 24.0648 55.2416 24.8198 55.2416 26.3282C55.2416 27.7338 55.6225 28.437 56.3879 28.437C57.2466 28.437 57.6763 27.6679 57.6763 26.1292ZM59.5298 28.9319L57.8187 28.9434C57.7508 28.5841 57.7181 28.3051 57.7181 28.1068C57.534 28.4014 57.2792 28.6298 56.9576 28.7952C56.6351 28.9607 56.293 29.0435 55.9332 29.0435C55.2814 29.0435 54.7595 28.8184 54.3654 28.3698C53.9377 27.8846 53.7226 27.2118 53.7226 26.3507C53.7226 25.4528 53.9502 24.7428 54.4056 24.2204C54.8333 23.7277 55.3803 23.481 56.0459 23.481C56.7936 23.481 57.3359 23.7346 57.6763 24.2416V22.6663C57.6763 22.1596 57.6687 21.6672 57.6552 21.1905C57.6071 21.1031 57.5056 21.0574 57.3501 21.0574H57.2473V20.7278H59.1113C59.0922 21.6463 59.0816 22.8245 59.0816 24.2638C59.0816 27.0317 59.1064 28.4484 59.1538 28.5136C59.2013 28.5815 59.2925 28.6138 59.4286 28.6138H59.5298V28.9319Z" fill="#51270C"/>
<path d="M62.0983 28.9444H60.2136C60.2478 27.2621 60.2646 25.8936 60.2646 24.8365C60.2646 22.4797 60.2449 21.2787 60.2047 21.2346C60.1556 21.1615 60.0607 21.124 59.9193 21.124H59.8172V20.7263H61.7217C61.6878 21.8151 61.6736 23.1721 61.6812 24.8029C61.6736 25.9987 61.6842 27.2144 61.7118 28.4481C61.7718 28.5134 61.8703 28.547 62.0071 28.547H62.0983V28.9444Z" fill="#51270C"/>
<path d="M64.4113 22.0057C64.4113 22.2468 64.3305 22.4543 64.1707 22.6276C64.0113 22.8002 63.8208 22.8863 63.5964 22.8863C63.372 22.8863 63.1796 22.8002 63.0211 22.6276C62.861 22.4543 62.7815 22.2468 62.7815 22.0057C62.7815 21.7632 62.861 21.557 63.0211 21.388C63.1796 21.22 63.372 21.1351 63.5964 21.1351C63.8208 21.1351 64.0113 21.22 64.1707 21.388C64.3305 21.557 64.4113 21.7632 64.4113 22.0057ZM64.7477 28.9444H62.8824C62.9239 27.9013 62.9453 26.987 62.9453 26.202C62.9453 25.5481 62.9348 24.9093 62.9133 24.2854C62.8857 24.1157 62.7753 24.0316 62.5772 24.0316H62.4751V23.6462H64.35C64.3167 24.6009 64.2989 25.4519 64.2989 26.202C64.2989 26.8849 64.3095 27.6119 64.3292 28.3829C64.3632 28.4922 64.4722 28.5483 64.6548 28.5483H64.7477V28.9444Z" fill="#51270C"/>
<path d="M68.5238 22.0268H68.126V21.9266C68.126 21.5896 67.9814 21.4218 67.6885 21.4218C67.4235 21.4218 67.2189 21.5325 67.0782 21.754C66.9556 21.9455 66.8947 22.1922 66.8947 22.4943C66.8947 23.0412 66.9046 23.4393 66.9243 23.6905C67.3181 23.6905 67.6608 23.6755 67.9531 23.6461V24.2749C67.8789 24.2667 67.7217 24.2595 67.4852 24.2533C67.2819 24.2449 67.0973 24.2413 66.9352 24.2413V25.5082C66.9352 26.7119 66.9451 27.633 66.9649 28.2722C66.9925 28.4644 67.1184 28.559 67.3408 28.559H67.4341V28.9437H65.488C65.5219 28.437 65.5391 27.2852 65.5391 25.4857V24.2413C65.5051 24.2413 65.2821 24.2533 64.8656 24.2749V23.6461C65.1114 23.6755 65.3463 23.6905 65.5701 23.6905C65.5701 23.0722 65.7727 22.4412 66.181 21.8003C66.6363 21.0845 67.1553 20.7278 67.7392 20.7278C68.0578 20.7278 68.3205 20.768 68.5238 20.8499V22.0268Z" fill="#51270C"/>
<path d="M71.1964 25.5301C71.1964 25.0084 71.1582 24.6488 71.0841 24.4498C70.9595 24.1496 70.7117 23.9976 70.342 23.9976C69.7367 23.9976 69.4105 24.5085 69.3621 25.5301H71.1964ZM72.6627 25.8489V26.0143C72.6565 26.0796 72.6528 26.1321 72.6528 26.168H69.3621V26.3328C69.3621 27.7655 69.8342 28.4807 70.778 28.4807C71.118 28.4807 71.4225 28.3916 71.69 28.2115C71.9582 28.0317 72.0933 27.8307 72.0933 27.6112V27.5012H72.47V28.5137C72.0021 28.8824 71.3111 29.0644 70.4013 29.0644C69.6675 29.0644 69.053 28.8024 68.5525 28.2774C68.0533 27.7515 67.8035 27.0933 67.8035 26.3011C67.8035 25.4795 68.0447 24.8058 68.5284 24.2844C69.0092 23.7639 69.6313 23.5026 70.3908 23.5026C71.0841 23.5026 71.6363 23.7222 72.0475 24.1581C72.4581 24.5956 72.6627 25.1591 72.6627 25.8489Z" fill="#51270C"/>
<path d="M86.175 25.1115H85.7773V25.0002C85.7773 24.6922 85.6313 24.5395 85.3397 24.5395C85.0132 24.5395 84.7512 24.6742 84.5545 24.9454C84.311 25.2834 84.1884 25.7928 84.1884 26.4773C84.1884 27.3367 84.1947 27.9779 84.2089 28.405C84.2431 28.5074 84.3499 28.5593 84.5341 28.5593H84.6365V28.9551H82.7923C82.8114 28.5949 82.8299 28.0588 82.8434 27.3472V25.2873C82.8434 24.7953 82.8328 24.4028 82.8131 24.1085C82.733 24.0579 82.6308 24.0318 82.5043 24.0318H82.4045V23.6582H84.1064C84.1545 24.1356 84.1749 24.4938 84.1673 24.7366C84.5963 23.9359 85.0537 23.5362 85.5427 23.5362C85.7608 23.5362 85.9704 23.5763 86.175 23.6582V25.1115Z" fill="#51270C"/>
<path d="M89.819 25.5301C89.819 25.0084 89.7808 24.6488 89.705 24.4498C89.5821 24.1496 89.3349 23.9976 88.9646 23.9976C88.3593 23.9976 88.0337 24.5085 87.9856 25.5301H89.819ZM91.2853 25.8489V26.0143C91.279 26.0796 91.2767 26.1321 91.2767 26.168H87.9856V26.3328C87.9856 27.7655 88.4562 28.4807 89.4005 28.4807C89.7406 28.4807 90.0457 28.3916 90.3139 28.2115C90.5808 28.0317 90.7146 27.8307 90.7146 27.6112V27.5012H91.0925V28.5137C90.6233 28.8824 89.9353 29.0644 89.0242 29.0644C88.2914 29.0644 87.6755 28.8024 87.175 28.2774C86.6758 27.7515 86.4261 27.0933 86.4261 26.3011C86.4261 25.4795 86.6672 24.8058 87.1493 24.2844C87.6317 23.7639 88.2532 23.5026 89.0133 23.5026C89.7066 23.5026 90.2572 23.7222 90.6701 24.1581C91.0807 24.5956 91.2853 25.1591 91.2853 25.8489Z" fill="#51270C"/>
<path d="M95.1474 25.5301C95.1474 25.0084 95.1105 24.6488 95.0344 24.4498C94.9118 24.1496 94.6647 23.9976 94.294 23.9976C93.6877 23.9976 93.3625 24.5085 93.314 25.5301H95.1474ZM96.615 25.8489V26.0143C96.6091 26.0796 96.6048 26.1321 96.6048 26.168H93.314V26.3328C93.314 27.7655 93.7862 28.4807 94.7303 28.4807C95.07 28.4807 95.3748 28.3916 95.642 28.2115C95.9096 28.0317 96.044 27.8307 96.044 27.6112V27.5012H96.4206V28.5137C95.9531 28.8824 95.2631 29.0644 94.3536 29.0644C93.6195 29.0644 93.0033 28.8024 92.5044 28.2774C92.0053 27.7515 91.7558 27.0933 91.7558 26.3011C91.7558 25.4795 91.996 24.8058 92.4804 24.2844C92.9612 23.7639 93.5833 23.5026 94.3428 23.5026C95.0361 23.5026 95.5883 23.7222 95.9999 24.1581C96.4095 24.5956 96.615 25.1591 96.615 25.8489Z" fill="#51270C"/>
<path d="M80.7883 26.7785C80.7586 25.6871 81.584 25.2939 81.7066 23.1731C81.7616 22.205 80.9108 19.6603 78.2197 17.9633C78.1463 17.9176 78.0748 17.8726 78.0046 17.8272C76.6497 15.6591 78.0214 15.6013 79.7325 14.6473C81.5534 13.6329 80.8153 12.3907 80.7395 12.1329C80.663 11.8755 80.4017 11.0271 80.5553 12.1329C80.7075 13.2384 80.1793 13.6785 79.4913 14.0711C79.0751 14.3096 77.6527 14.6009 76.9653 14.8891C76.3706 15.139 76.1758 15.8832 76.2325 16.5998C74.8301 15.5243 74.0429 14.5716 73.6923 13.5118C73.202 12.0262 73.2841 8.60448 72.9582 8.19598C72.8274 8.03316 72.9526 10.1824 72.9582 10.7987C72.9605 10.9844 72.831 12.6152 73.3648 14.3634C72.7559 13.9562 71.5113 13.6345 70.2668 13.7542C68.8436 13.889 67.6508 13.103 67.5299 12.0872C67.4054 11.0728 67.3138 11.9512 67.3302 12.0872C67.345 12.2246 67.6508 14.2234 70.1294 14.4202C72.5585 14.613 73.6564 15.7348 74.409 16.4722C74.5279 16.6304 74.6545 16.7841 74.7942 16.9342C77.2589 19.5902 78.2814 20.4183 78.0669 21.8706C77.8517 23.3238 76.392 24.6567 75.4717 25.7775C74.5491 26.8983 74.5787 28.9888 74.5787 28.9888H81.9811C81.0637 28.1398 80.8179 27.868 80.7883 26.7785Z" fill="#51270C"/>
<path d="M11.3486 42.9035L14.4169 42.7051C14.4169 42.4183 14.3978 42.1521 14.3629 41.9054C14.327 41.6613 14.2222 41.3641 14.0538 41.0163C13.7513 40.5131 13.3945 40.2606 12.9819 40.2606C12.4992 40.2606 12.0998 40.5076 11.7848 40.998C11.6026 41.2975 11.4817 41.6277 11.422 41.9866C11.3614 42.3462 11.3374 42.6513 11.3486 42.9035ZM8.55368 43.7482C8.55368 42.3344 8.95502 41.2049 9.76 40.3604C10.5643 39.5147 11.6573 39.0935 13.0369 39.0935C14.441 39.0935 15.503 39.5666 16.2226 40.5131C16.9423 41.4587 17.3017 42.6281 17.3017 44.0181H11.3486C11.4336 44.9 11.7542 45.6593 12.3107 46.2965C12.8673 46.9344 13.5823 47.2525 14.4538 47.2525C15.1056 47.2525 15.8088 47.121 16.5577 46.8574L16.9399 47.8823C15.8144 48.3736 14.7128 48.619 13.6353 48.619C12.0741 48.619 10.8381 48.1668 9.9241 47.2617C9.01104 46.3569 8.55368 45.1862 8.55368 43.7482Z" fill="#51270C"/>
<path d="M21.3138 44.1075C21.3138 45.0902 21.5286 45.8332 21.9589 46.3367C22.3873 46.8391 22.814 47.091 23.2374 47.091C23.8427 47.091 24.3759 46.8701 24.8358 46.4264V40.3862C24.4961 40.303 24.1996 40.2609 23.9455 40.2609C23.1468 40.2609 22.5089 40.5754 22.0311 41.2052C21.5533 41.8339 21.3138 42.802 21.3138 44.1075ZM18.4454 44.1802C18.4454 42.5609 18.9637 41.3096 19.9987 40.4234C21.033 39.5359 22.2937 39.0938 23.7824 39.0938C24.1577 39.0938 24.509 39.1293 24.8358 39.2008V35.6061H23.2928V34.654L26.1967 33.9698H27.6488V47.0019H29.0654V47.7736C28.9916 47.8356 28.8924 47.9119 28.7652 48.0079C28.6383 48.1045 28.3869 48.2301 28.012 48.3851C27.6373 48.542 27.2798 48.619 26.9401 48.619C26.4323 48.619 26.0049 48.4999 25.6616 48.2588C25.3166 48.0206 25.0711 47.7625 24.9258 47.4861C24.2605 48.2421 23.444 48.619 22.4756 48.619C21.3747 48.619 20.4277 48.2399 19.6346 47.478C18.8425 46.7171 18.4454 45.6175 18.4454 44.1802Z" fill="#51270C"/>
<path d="M30.0811 48.3493V47.2494L36.6162 37.1336H32.0598L31.2789 39.722H30.2439V35.7688H40.3733V36.8674L33.856 46.9838H38.5204L39.792 44.4672H40.7901L40.2642 48.3493H30.0811Z" fill="#51270C"/>
<path d="M48.3954 47.3792C49.4479 47.3792 50.2466 46.9152 50.7916 45.9863C51.3363 45.0583 51.6084 43.7486 51.6084 42.0584C51.6084 40.3696 51.3333 39.0602 50.7817 38.1306C50.2317 37.2027 49.436 36.739 48.3954 36.739C47.3433 36.739 46.5433 37.2027 45.9996 38.1306C45.4559 39.0602 45.1834 40.3696 45.1834 42.0584C45.1834 43.7486 45.4516 45.0583 45.991 45.9863C46.5291 46.9152 47.3304 47.3792 48.3954 47.3792ZM42.1328 42.0584C42.1328 40.118 42.6742 38.5385 43.7589 37.3231C44.8407 36.1067 46.3867 35.4991 48.3954 35.4991C50.3797 35.4991 51.9201 36.0975 53.0154 37.295C54.1097 38.4944 54.6577 40.0821 54.6577 42.0584C54.6577 44.0243 54.1097 45.6078 53.0154 46.8134C51.9201 48.0171 50.3797 48.6194 48.3954 48.6194C46.4108 48.6194 44.8704 48.0242 43.7757 46.831C42.6808 45.6388 42.1328 44.0478 42.1328 42.0584Z" fill="#51270C"/>
<path d="M62.4443 47.3792C63.4977 47.3792 64.2965 46.9152 64.8415 45.9863C65.3852 45.0583 65.657 43.7486 65.657 42.0584C65.657 40.3696 65.3815 39.0602 64.8316 38.1306C64.281 37.2027 63.4846 36.739 62.4443 36.739C61.3915 36.739 60.5925 37.2027 60.0481 38.1306C59.5035 39.0602 59.2316 40.3696 59.2316 42.0584C59.2316 43.7486 59.5002 45.0583 60.0396 45.9863C60.5777 46.9152 61.379 47.3792 62.4443 47.3792ZM56.1827 42.0584C56.1827 40.118 56.7241 38.5385 57.8058 37.3231C58.8893 36.1067 60.4353 35.4991 62.4443 35.4991C64.4289 35.4991 65.9694 36.0975 67.0637 37.295C68.1589 38.4944 68.7069 40.0821 68.7069 42.0584C68.7069 44.0243 68.1589 45.6078 67.0637 46.8134C65.9694 48.0171 64.4289 48.6194 62.4443 48.6194C60.46 48.6194 58.9189 48.0242 57.8243 46.831C56.7293 45.6388 56.1827 44.0478 56.1827 42.0584Z" fill="#51270C"/>
<path d="M70.0855 43.82C70.0855 42.4307 70.5491 41.2943 71.4737 40.4139C72.4003 39.5333 73.4913 39.0938 74.75 39.0938C75.8034 39.0938 76.8377 39.3447 77.8546 39.8482C77.8177 40.8427 77.3758 41.5739 76.5293 42.0408L74.9681 40.2622H74.8597C74.3523 40.4055 73.9055 40.7735 73.5183 41.3673C73.1295 41.9595 72.9357 42.7896 72.9357 43.8559C72.9229 45.0537 73.1967 45.9533 73.7519 46.552C74.2735 47.0427 74.9497 47.2894 75.785 47.2894C76.1362 47.2894 76.4782 47.2594 76.811 47.1997C77.1429 47.1387 77.4856 47.0555 77.8375 46.9481L78.0533 48.0079C77.0737 48.4144 76.0697 48.62 75.0403 48.62C73.6735 48.62 72.5054 48.188 71.538 47.3253C70.5695 46.4623 70.0855 45.2942 70.0855 43.82Z" fill="#51270C"/>
<path d="M81.8664 45.9592C81.8664 46.3067 81.984 46.5817 82.2189 46.7856C82.4555 46.9902 82.7429 47.0914 83.0819 47.0914C83.6256 47.0914 84.08 46.8943 84.4435 46.4982V44.0361C83.765 44.0361 83.1663 44.2129 82.6473 44.5663C82.1257 44.9203 81.8664 45.3836 81.8664 45.9592ZM78.9433 46.121C78.9433 45.0779 79.3753 44.2844 80.2409 43.7388C81.1062 43.1942 82.5079 42.9215 84.4435 42.9215V42.3818C84.4435 42.0229 84.4412 41.7622 84.4349 41.6007C84.4283 41.4388 84.3999 41.244 84.3528 41.0163C84.3037 40.7892 84.2346 40.6277 84.1433 40.5311C84.0527 40.4352 83.9166 40.3487 83.7353 40.2704C83.5548 40.1924 83.3304 40.1533 83.0641 40.1533L80.7586 42.1302C79.9351 41.6633 79.5246 40.9383 79.5246 39.9555L80.0689 39.7216C80.2989 39.6266 80.7464 39.4971 81.412 39.3359C82.0783 39.1747 82.7244 39.0941 83.3544 39.0941C85.9562 39.0941 87.2574 40.1239 87.2574 42.1847V47.0016H88.6733V47.774C88.6117 47.835 88.5267 47.9123 88.4176 48.0082C88.3096 48.1048 88.0723 48.2304 87.7105 48.3854C87.3474 48.5424 86.9734 48.6187 86.5849 48.6187C85.6653 48.6187 84.9812 48.314 84.5334 47.7025C83.7228 48.314 82.8397 48.6187 81.8819 48.6187C81.0489 48.6187 80.35 48.4092 79.7872 47.99C79.2244 47.5707 78.9433 46.9481 78.9433 46.121Z" fill="#51270C"/>
<path d="M89.2895 40.6201V39.9016L92.3747 37.727H93.0465V39.453L95.2977 39.3633V40.6201H93.0465V45.7607C93.0465 46.3497 93.1124 46.7611 93.2456 47.0016C93.3784 47.2421 93.6519 47.3612 94.0637 47.3612C94.3646 47.3612 94.7712 47.2525 95.2793 47.0375L95.5702 48.0434C94.8447 48.4275 94.0753 48.6187 93.2647 48.6187C91.2554 48.6187 90.2517 47.6963 90.2517 45.8511V40.6201H89.2895Z" fill="#51270C"/>
<path d="M97.4396 36.5945C97.4396 36.1276 97.603 35.7344 97.9299 35.4176C98.2564 35.0991 98.6558 34.9402 99.128 34.9402C99.612 34.9402 100.013 35.0991 100.334 35.4176C100.655 35.7344 100.816 36.1276 100.816 36.5945C100.816 37.0741 100.655 37.4751 100.334 37.7988C100.013 38.1221 99.612 38.2846 99.128 38.2846C98.6558 38.2846 98.2564 38.1221 97.9299 37.7988C97.603 37.4751 97.4396 37.0741 97.4396 36.5945ZM96.1871 48.3492V47.3981L97.7289 47.0375V40.9983H96.1871V40.0449L99.0911 39.362H100.525V47.0375L102.068 47.3981V48.3492H96.1871Z" fill="#51270C"/>
<path d="M105.753 43.838C105.753 44.964 105.92 45.8492 106.252 46.4887C106.584 47.1315 107.078 47.4519 107.731 47.4519C108.385 47.4519 108.877 47.1315 109.21 46.4887C109.543 45.8492 109.709 44.964 109.709 43.838C109.709 42.7234 109.543 41.8486 109.21 41.215C108.877 40.579 108.385 40.2606 107.731 40.2606C107.078 40.2606 106.584 40.579 106.252 41.215C105.92 41.8486 105.753 42.7234 105.753 43.838ZM107.731 48.619C107.042 48.619 106.397 48.4999 105.798 48.2588C105.199 48.0203 104.681 47.6907 104.246 47.2718C103.811 46.8525 103.466 46.3484 103.21 45.7617C102.957 45.1748 102.831 44.5336 102.831 43.838C102.831 43.1433 102.957 42.5054 103.21 41.925C103.466 41.3432 103.811 40.8427 104.246 40.4234C104.681 40.0041 105.199 39.6775 105.798 39.4432C106.397 39.2106 107.042 39.0935 107.731 39.0935C108.421 39.0935 109.062 39.2106 109.655 39.4432C110.249 39.6775 110.765 40.0041 111.207 40.4234C111.649 40.8427 111.994 41.3432 112.242 41.925C112.489 42.5054 112.614 43.1433 112.614 43.838C112.614 44.5215 112.489 45.1562 112.242 45.7428C111.994 46.3308 111.649 46.8378 111.207 47.2633C110.765 47.6881 110.249 48.0203 109.655 48.2588C109.062 48.4999 108.421 48.619 107.731 48.619Z" fill="#51270C"/>
<path d="M113.758 48.3492V47.3964L115.3 47.0375V40.9983H113.758V40.0449L116.661 39.3636H118.096V40.2439C118.833 39.4772 119.747 39.0938 120.837 39.0938C121.309 39.0938 121.735 39.1623 122.116 39.2997C122.497 39.4377 122.818 39.6322 123.078 39.8837C123.338 40.1353 123.541 40.4348 123.686 40.7823C123.831 41.1301 123.904 41.5073 123.904 41.9152V47.0375L125.447 47.3964V48.3492H119.929V47.3964L121.11 47.0375V42.418C121.11 42.047 121.087 41.7478 121.045 41.5197C121.002 41.292 120.932 41.1155 120.837 40.9898C120.74 40.8636 120.609 40.7797 120.445 40.737C120.283 40.6962 120.08 40.6753 119.838 40.6753C119.379 40.6753 118.798 40.938 118.096 41.4652V47.0375L119.276 47.3964V48.3492H113.758Z" fill="#51270C"/>
<path d="M129.822 58H4.17828C2.15017 58 0.5 56.366 0.5 54.3577V28.4295C0.5 26.4209 2.15017 24.7885 4.17828 24.7885H33.5759V26.2284H4.17828C2.95219 26.2284 1.95543 27.2154 1.95543 28.4295V54.3577C1.95543 55.5718 2.95219 56.5588 4.17828 56.5588H129.822C131.047 56.5588 132.044 55.5718 132.044 54.3577V28.4295C132.044 27.2154 131.047 26.2284 129.822 26.2284H100.423V24.7885H129.822C131.85 24.7885 133.5 26.4209 133.5 28.4295V54.3577C133.5 56.366 131.85 58 129.822 58Z" fill="#53A500"/>
</svg>
